<svg width="54" height="7" viewBox="0 0 54 7" fill="none" xmlns="http://www.w3.org/2000/svg">
<path fill-rule="evenodd" clip-rule="evenodd" d="M18.5478 6.99898C36.6025 7.03691 53.0095 6.02664 53 2.36163C52.9939 0.655691 20.4605 0.0365565 18.6227 0.00158033C18.5692 0.000565338 18.5417 4.18461e-05 18.5417 0L18.542 0.374496L11.9707 0.361297C11.9632 0.360942 11.9556 0.360674 11.9481 0.360674L1.96907 0.339217C0.879923 0.338416 -0.00128885 1.2219 1.41509e-06 2.31311C0.00130176 3.40422 0.205858 5.34339 1.97896 5.34695C2.92218 5.34962 3.36484 4.98066 3.78004 4.6345C4.146 4.32947 4.49064 4.04224 5.13789 4.04286L13.0529 4.0588C13.0563 4.05884 13.0597 4.05883 13.0631 4.05878C13.0679 4.05871 13.0725 4.05856 13.0773 4.05836L18.5453 4.06933L18.5478 6.99898Z" fill="#C64317"/>
</svg>
