<svg width="54" height="15" viewBox="0 0 54 15" fill="none" xmlns="http://www.w3.org/2000/svg">
<path d="M0 9.57967L0.0137085 5.66298L33.1596 5.57316L33.196 4.98969C33.1956 4.47671 33.3205 3.96811 33.5638 3.49321C33.8071 3.01832 34.1638 2.58654 34.6134 2.22282C35.063 1.85901 35.5966 1.57032 36.1836 1.37355C36.7704 1.17671 37.399 1.07552 38.033 1.07593L52.9839 1L52.9922 3.56939L41.8348 3.62274L41.8599 6.26155L53 6.22209L52.9911 8.77767L41.8509 8.78929L41.8074 11.4283L52.9818 11.4166L52.9385 14L37.9878 13.9925C35.3101 13.9987 33.1534 12.2536 33.1781 10.1009L33.1458 9.51755L0 9.57967Z" fill="#C64317"/>
</svg>
