<svg width="72" height="72" viewBox="0 0 72 72" fill="none" xmlns="http://www.w3.org/2000/svg">
<path d="M27 32.97C27.7957 32.97 28.5587 32.654 29.1213 32.0913C29.6839 31.5287 30 30.7657 30 29.97C30 29.1744 29.6839 28.4113 29.1213 27.8487C28.5587 27.2861 27.7957 26.97 27 26.97C26.2044 26.97 25.4413 27.2861 24.8787 27.8487C24.3161 28.4113 24 29.1744 24 29.97C24 30.7657 24.3161 31.5287 24.8787 32.0913C25.4413 32.654 26.2044 32.97 27 32.97ZM42 38.964C42 39.7597 41.6839 40.5227 41.1213 41.0853C40.5587 41.648 39.7957 41.964 39 41.964C38.2044 41.964 37.4413 41.648 36.8787 41.0853C36.3161 40.5227 36 39.7597 36 38.964C36 38.1684 36.3161 37.4053 36.8787 36.8427C37.4413 36.2801 38.2044 35.964 39 35.964C39.7957 35.964 40.5587 36.2801 41.1213 36.8427C41.6839 37.4053 42 38.1684 42 38.964ZM27 50.958C27.7957 50.958 28.5587 50.642 29.1213 50.0793C29.6839 49.5167 30 48.7537 30 47.958C30 47.1624 29.6839 46.3993 29.1213 45.8367C28.5587 45.2741 27.7957 44.958 27 44.958C26.2044 44.958 25.4413 45.2741 24.8787 45.8367C24.3161 46.3993 24 47.1624 24 47.958C24 48.7537 24.3161 49.5167 24.8787 50.0793C25.4413 50.642 26.2044 50.958 27 50.958ZM15 13.98C15 9.48903 18.69 5.56503 23.46 6.03603C38.9922 7.57551 53.382 14.8849 63.786 26.52C66.996 30.099 65.997 35.412 62.349 38.055C57.603 41.499 50.529 46.626 46.5 49.554C46.494 50.865 46.494 51.717 46.497 52.83V54.714C46.4974 55.4814 46.3296 56.2396 46.0054 56.9352C45.6811 57.6307 45.2083 58.2467 44.6203 58.7398C44.0322 59.2329 43.3432 59.591 42.6018 59.7891C41.8604 59.9871 41.0846 60.0202 40.329 59.886C39.717 62.364 37.533 64.467 34.497 64.467C32.397 64.467 30.711 63.462 29.67 62.022L25.695 64.893C21.231 68.115 14.985 64.926 14.988 59.415L15 13.983V13.98ZM23.019 10.515C21.192 10.335 19.497 11.844 19.497 13.98V15.54C35.259 16.203 49.23 23.787 58.452 35.322L59.709 34.41C61.443 33.15 61.665 30.891 60.435 29.52C50.7812 18.7259 37.4298 11.9453 23.019 10.518V10.515ZM19.488 59.415C19.488 61.251 21.57 62.316 23.058 61.239L29.442 56.637C29.7784 56.395 30.175 56.2506 30.5882 56.2197C31.0014 56.1888 31.4151 56.2726 31.7837 56.4619C32.1524 56.6512 32.4615 56.9386 32.6772 57.2924C32.8929 57.6462 33.0067 58.0527 33.006 58.467C33.006 59.277 33.633 59.967 34.497 59.967C34.6948 59.969 34.8911 59.9316 35.0743 59.857C35.2575 59.7824 35.4241 59.6721 35.5642 59.5325C35.7044 59.3929 35.8154 59.2268 35.8907 59.0439C35.966 58.8609 36.0042 58.6649 36.003 58.467V54.711C36.003 54.1143 36.2401 53.542 36.662 53.12C37.084 52.6981 37.6563 52.461 38.253 52.461C38.8497 52.461 39.422 52.6981 39.844 53.12C40.2659 53.542 40.503 54.1143 40.503 54.711C40.503 55.131 40.836 55.461 41.247 55.461C41.4459 55.461 41.6367 55.382 41.7773 55.2414C41.918 55.1007 41.997 54.9099 41.997 54.711V52.845C41.994 51.435 41.991 50.421 42.012 48.378C42.0148 48.0267 42.0998 47.6809 42.2603 47.3683C42.4207 47.0557 42.6521 46.7851 42.936 46.578C45.642 44.61 50.424 41.142 54.804 37.968C50.5266 32.6468 45.1659 28.2967 39.0779 25.2067C32.99 22.1166 26.3142 20.3575 19.494 20.046L19.488 59.415Z" fill="#F2D6A2"/>
</svg>
