<svg width="70" height="70" viewBox="0 0 70 70" fill="none" xmlns="http://www.w3.org/2000/svg">
<path d="M44.0234 56.875C44.0234 61.708 41.2002 65.625 36.3672 65.625H18.3203C13.4873 65.625 10.6641 61.708 10.6641 56.875" stroke="#982A3A" stroke-width="4" stroke-miterlimit="10" stroke-linecap="round"/>
<path d="M45.9375 45.9375C48.3533 45.9375 50.3125 48.3861 50.3125 51.4062C50.3125 54.4264 48.3533 56.875 45.9375 56.875H8.75C6.33418 56.875 4.375 54.4264 4.375 51.4062C4.375 48.3861 6.33418 45.9375 8.75 45.9375" stroke="#982A3A" stroke-width="4" stroke-miterlimit="10" stroke-linecap="round"/>
<path d="M47.0312 45.9375H24.515C24.2253 45.9376 23.9475 46.0527 23.7426 46.2574L20.0744 49.9256C20.0236 49.9764 19.9633 50.0168 19.8969 50.0443C19.8305 50.0718 19.7594 50.086 19.6875 50.086C19.6156 50.086 19.5445 50.0718 19.4781 50.0443C19.4117 50.0168 19.3514 49.9764 19.3006 49.9256L15.6324 46.2574C15.4275 46.0527 15.1497 45.9376 14.86 45.9375H7.65625C6.78601 45.9375 5.95141 45.5918 5.33606 44.9764C4.7207 44.3611 4.375 43.5265 4.375 42.6562V42.6562C4.375 41.786 4.7207 40.9514 5.33606 40.3361C5.95141 39.7207 6.78601 39.375 7.65625 39.375H47.0312C47.9015 39.375 48.7361 39.7207 49.3514 40.3361C49.9668 40.9514 50.3125 41.786 50.3125 42.6562C50.3125 43.5265 49.9668 44.3611 49.3514 44.9764C48.7361 45.5918 47.9015 45.9375 47.0312 45.9375Z" stroke="#982A3A" stroke-width="4" stroke-miterlimit="10" stroke-linecap="round"/>
<path d="M8.75 37.7344V37.7043C8.75 30.1848 14.9023 26.25 22.4219 26.25H32.2656C39.7852 26.25 45.9375 30.2148 45.9375 37.7344V37.7043" stroke="#982A3A" stroke-width="4" stroke-miterlimit="10" stroke-linecap="round"/>
<path d="M32.9492 15.3125L33.9664 24.0584" stroke="#982A3A" stroke-width="4" stroke-miterlimit="10" stroke-linecap="round"/>
<path d="M35 65.625H54.0463C55.15 65.625 56.213 65.2078 57.0221 64.457C57.8311 63.7062 58.3265 62.6774 58.409 61.5768L63.3008 15.3125" stroke="#982A3A" stroke-width="4" stroke-miterlimit="10" stroke-linecap="round"/>
<path d="M50.3125 15.3125L52.5 6.5625L58.9258 4.375" stroke="#982A3A" stroke-width="4" stroke-linecap="round" stroke-linejoin="round"/>
<path d="M30.625 15.3125H65.625" stroke="#982A3A" stroke-width="4" stroke-miterlimit="10" stroke-linecap="round"/>
</svg>
