<svg width="70" height="70" viewBox="0 0 70 70" fill="none" xmlns="http://www.w3.org/2000/svg">
<path d="M67.7688 34.6161C66.442 11.5533 54.5278 8.18125 44.9225 8.18016H44.9214C42.4944 8.18125 40.2172 8.39563 38.2933 8.56406C38.2769 7.51516 38.3217 6.39188 38.4978 5.15047C38.5011 5.13297 38.4934 5.11766 38.4913 5.10125C38.4934 5.0925 38.4978 5.08375 38.4978 5.075C38.4978 4.68891 37.7716 4.375 36.8725 4.375C35.9756 4.375 35.2494 4.68891 35.2494 5.075C35.0034 6.32635 34.6682 7.5585 34.2464 8.76203C21.5731 8.83859 4.87923 10.8489 2.33079 33.833C0.482351 50.5138 16.7738 65.625 35.1017 65.625C53.4297 65.625 68.7323 51.3789 67.7688 34.6161ZM38.9758 11.7983C39.4231 11.7589 39.8869 11.7184 40.3638 11.6802C39.7906 11.9109 39.2339 12.1505 38.71 12.3911C38.6717 12.2183 38.6455 12.0127 38.6105 11.8289L38.9758 11.7983ZM32.8956 12.0586C32.7523 12.3572 32.6123 12.6437 32.4778 12.9073C32.1553 12.6154 31.8144 12.3443 31.4573 12.0958C31.9364 12.0794 32.4155 12.0684 32.8956 12.0586ZM57.5827 52.8566C51.8897 58.8864 43.6953 62.3438 35.1017 62.3438C26.3441 62.3438 17.6455 58.4675 11.8311 51.975C7.12032 46.713 4.90438 40.3988 5.59235 34.1939C6.88407 22.5477 12.0367 16.9848 18.6495 14.35C25.0567 13.16 31.0855 15.3453 31.0855 15.3453C31.0855 15.3453 17.3819 11.9437 12.0083 29.5509C18.7709 19.0083 30.4084 22.1112 33.4698 18.2252C33.4698 25.7381 38.9299 22.0927 41.6894 25.4767C45.2397 29.8277 46.5391 37.6239 50.6231 39.1595C46.6003 30.5233 53.1869 30.8602 43.9327 19.2697C48.8075 22.2983 51.3352 19.2336 57.9917 21.9625C52.2966 12.6536 43.1856 15.3453 43.1856 15.3453C43.1856 15.3453 46.8934 11.9667 50.8244 12.0608C57.4656 13.6117 63.5742 18.83 64.4941 34.8053C64.8681 41.3295 62.4137 47.74 57.5827 52.8566Z" fill="#982A3A"/>
</svg>
