<svg width="70" height="70" viewBox="0 0 70 70" fill="none" xmlns="http://www.w3.org/2000/svg">
<path fill-rule="evenodd" clip-rule="evenodd" d="M8.15064 11.2919C3.49077 16.619 0.695274 23.3205 0.188141 30.38H4.43627C4.95303 24.4579 7.32797 18.8505 11.2219 14.3587L8.15064 11.2919Z" fill="#F2D6A2"/>
<path fill-rule="evenodd" clip-rule="evenodd" d="M14.2887 17.4213C11.1922 21.0896 9.27139 25.605 8.77625 30.38L27.2431 30.3756L14.2887 17.4213Z" fill="#F2D6A2"/>
<path fill-rule="evenodd" clip-rule="evenodd" d="M30.4894 0.183716C23.4403 0.665933 16.7398 3.43027 11.4013 8.05872L14.4769 11.1343C18.9984 7.32754 24.5972 5.02991 30.4894 4.56309V0.183716Z" fill="#F2D6A2"/>
<path fill-rule="evenodd" clip-rule="evenodd" d="M30.4894 8.88562C25.7443 9.33972 21.2406 11.1911 17.5481 14.2056L30.4894 27.1469V8.88562Z" fill="#F2D6A2"/>
<path fill-rule="evenodd" clip-rule="evenodd" d="M8.75876 35.1399C9.18448 39.9177 11.0572 44.4521 14.1269 48.138L27.2431 35.1443L8.75876 35.1399Z" fill="#F2D6A2"/>
<path fill-rule="evenodd" clip-rule="evenodd" d="M0.179382 35.1399C0.640976 42.1716 3.40896 48.8548 8.05438 54.1536L11.06 51.1786C7.18936 46.679 4.86054 41.0585 4.41438 35.1399H0.179382Z" fill="#F2D6A2"/>
<path fill-rule="evenodd" clip-rule="evenodd" d="M17.3557 51.3275C21.0811 54.4359 25.6593 56.3453 30.4894 56.805V38.1981L17.3557 51.3275Z" fill="#F2D6A2"/>
<path fill-rule="evenodd" clip-rule="evenodd" d="M11.2875 57.3956C16.6416 62.0859 23.3879 64.888 30.4894 65.3713V61.1275C24.516 60.648 18.8478 58.2895 14.2975 54.39L11.2875 57.3956Z" fill="#F2D6A2"/>
<path fill-rule="evenodd" clip-rule="evenodd" d="M57.5006 54.158C62.144 48.8575 64.913 42.1756 65.38 35.1443H61.215C60.7657 41.0783 58.4258 46.7119 54.5388 51.218L57.5006 54.158Z" fill="#F2D6A2"/>
<path fill-rule="evenodd" clip-rule="evenodd" d="M38.3075 35.1443L51.4719 48.1818C54.56 44.4889 56.444 39.9393 56.8706 35.1443H38.3075Z" fill="#F2D6A2"/>
<path fill-rule="evenodd" clip-rule="evenodd" d="M56.8488 30.3756C56.353 25.5854 54.4225 21.0566 51.31 17.3818L38.3119 30.3756H56.8488Z" fill="#F2D6A2"/>
<path fill-rule="evenodd" clip-rule="evenodd" d="M65.3669 30.3756C64.8594 23.3175 62.0639 16.6175 57.4044 11.2919L54.3725 14.3237C58.2881 18.8173 60.6763 24.4378 61.1931 30.3756H65.3669Z" fill="#F2D6A2"/>
<path fill-rule="evenodd" clip-rule="evenodd" d="M35.07 65.3712C42.1666 64.8853 48.9085 62.0868 54.2631 57.4043L51.2881 54.4293C46.725 58.3192 41.0479 60.6653 35.07 61.1318V65.3712Z" fill="#F2D6A2"/>
<path fill-rule="evenodd" clip-rule="evenodd" d="M35.07 56.8138C39.9045 56.3658 44.4913 54.4689 48.23 51.3713L35.07 38.2025V56.8138Z" fill="#F2D6A2"/>
</svg>
