<svg width="80" height="70" viewBox="0 0 80 70" fill="none" xmlns="http://www.w3.org/2000/svg">
<path d="M49.8025 30.9323C49.075 29.0379 47.965 28.3598 46.6813 28.3598C45.1163 28.3598 43.2913 29.3649 41.575 30.4062C40.5538 31.0274 36.6 34.8479 34.4438 34.8479C34.1967 34.8537 33.9538 34.7909 33.75 34.6685C31.645 33.3648 34.2825 27.6838 34.2825 24.9593C34.2825 22.3223 33.735 21.3149 32.8963 21.3149C30.5775 21.3149 26.035 29.0401 24.7688 31.2692C24.4113 31.8981 23.9125 32.1463 23.3338 32.1463C21.31 32.1463 18.3 29.1003 16.9175 28.6332C16.7112 28.56 16.4913 28.5207 16.2688 28.5173C13.9588 28.5173 14.0088 33.5452 14.0438 34.8796C15.3063 34.5777 16.49 34.3918 17.525 34.3918C20.1338 34.3918 21.7925 35.5742 21.36 39.0446C21.2625 39.8245 20.6988 42.3095 21.6213 42.8574C21.7693 42.9417 21.9435 42.9841 22.12 42.9788C23.1838 42.9788 24.8688 41.8315 25.495 41.4815C26.3375 41.009 27.2213 40.6634 27.9688 40.6634C28.8688 40.6634 29.5713 41.1632 29.7725 42.5468C29.8925 43.366 29.4338 46.4832 30.3513 46.9809C30.4859 47.0518 30.6404 47.0885 30.7975 47.087C32.4913 47.087 35.3825 43.3835 36.6913 42.9592C37.3057 42.76 37.956 42.6589 38.6113 42.6606C40.3525 42.6606 42.0088 43.3332 43.7025 43.902C43.9875 43.9982 44.22 44.0398 44.4088 44.0398C45.4325 44.0398 45.135 42.7962 44.2588 42.001C42.9825 40.8373 40.9575 41.3481 39.5375 40.5146C37.7338 39.4559 40.245 37.3285 41.22 36.6974C42.3838 35.9427 44.9638 34.7298 47.0225 34.7298C47.9763 34.7298 48.8175 34.9901 49.3525 35.6748C50.3638 36.9687 48.6813 38.6027 49.1063 40.0552C49.285 40.6579 49.7175 40.8657 50.23 40.8657C51.3213 40.8657 52.7675 39.9229 52.8675 39.8332C53.5326 39.2285 54.2484 38.6681 55.0088 38.1565C51.2088 37.4204 50.8863 33.7607 49.8025 30.9323Z" fill="#FBFF15"/>
<path d="M18.645 28.2067C18.645 28.2067 21.9313 30.7431 23.335 30.7431C23.6038 30.7431 23.805 30.6501 23.8988 30.4248C25.9188 25.585 30.19 20.0539 32.9788 20.0539C34.195 20.0539 35.1288 21.1072 35.4688 23.7322C35.9088 27.1304 33.2225 32.2809 34.5138 33.4545C34.5419 33.4794 34.5757 33.4988 34.6129 33.5117C34.6501 33.5245 34.69 33.5303 34.73 33.5289C36.1813 33.5289 41.915 27.1042 46.8225 27.1042C47.2002 27.1034 47.5765 27.1442 47.9425 27.2256C52.3638 28.2176 50.4475 34.814 54.0363 36.6986C54.6305 37.0153 55.3117 37.185 56.0075 37.1897C57.33 37.1897 58.5375 36.5301 58.8263 35.1662C59.555 31.7231 47.0575 25.049 53.8188 25.049C54.7887 25.049 56.155 25.1858 58.0125 25.4898C59.1188 18.8573 58.7325 17.0187 57.7425 17.0187C56.6138 17.0187 54.6988 19.4064 53.305 19.8176C53.2647 19.8295 53.2225 19.8357 53.18 19.8362C52.3838 19.8362 52.4113 17.3272 51.0488 17.3272C50.1688 17.3272 48.71 18.3739 46.0775 21.8148C44.72 23.59 43.7038 24.2922 42.9012 24.2922C39.8487 24.2922 39.935 14.0754 36.2725 14.0754C35.5325 14.0754 34.64 14.4922 33.5375 15.4929C31.845 17.0308 30.265 17.5754 28.7863 17.5754C25.185 17.5754 22.2013 14.339 19.755 14.339C18.79 14.339 17.9063 14.8433 17.1038 16.252C15.4425 19.1734 21.0675 19.0225 18.645 28.2067ZM22.9488 29.5214C22.2913 29.2632 21.1238 28.572 20.0288 27.7845C20.2313 26.9172 20.3563 26.1384 20.4288 25.4209C20.7375 24.9681 21.1175 24.5218 21.5813 24.1084C23.47 22.4229 25.89 21.8903 27.0763 22.8637C25.385 24.9036 23.8963 27.4006 22.9488 29.5214ZM50.7125 25.1748C50.095 26.4534 51.2962 27.8031 53.135 29.5673C53.0067 29.6899 52.8575 29.7944 52.6925 29.8768C52.5174 29.9618 52.3272 30.0206 52.13 30.0507C51.545 28.3226 50.5638 26.6634 48.2475 26.1439C47.9071 26.0712 47.5598 26.0261 47.21 26.0093C46.5825 24.2243 46.8738 22.5476 48.0625 21.9679C49.3725 21.3259 51.2825 22.2425 52.5863 24.0209C51.86 24.1423 51.07 24.4354 50.7125 25.1748Z" fill="#FBFF15"/>
<path d="M60.0087 35.1904C59.735 36.7555 62.335 37.0355 61.0925 39.5993C60.455 40.9107 55.0563 43.9338 55.4538 44.5955C56.0425 45.5635 56.75 45.9398 57.4663 45.9398C58.8837 45.9398 60.3275 44.4676 60.9088 43.1923C61.67 41.5243 61.8663 37.146 63.7212 36.3345C64.035 36.1955 64.345 36.1343 64.6512 36.1343C66.4825 36.1343 68.1937 38.301 69.8437 38.5941C70.2462 37.0257 69.9587 35.3982 70.3687 33.821C63.4037 33.7445 74.2387 25.4155 68.0475 22.0173C67.7137 21.8346 67.4337 21.7526 67.1887 21.7537C65.24 21.7537 65.6937 26.9752 60.77 26.9752C60.3775 26.9752 59.9487 26.9413 59.4825 26.8691C57.6812 26.5913 56.4375 26.4623 55.6238 26.4623C50.8813 26.4645 60.7775 30.8296 60.0087 35.1904Z" fill="#FBFF15"/>
<path d="M72.3463 27.008C72.5238 26.0685 72.5331 25.1106 72.3737 24.1686C71.9262 21.5447 69.5825 19.4097 67.15 19.4086C66.3188 19.4086 64.3288 19.7116 63.3875 22.2961C62.7545 22.0647 62.1156 21.8459 61.4712 21.6398C62.0275 18.3641 61.8187 16.1186 60.82 14.9712C60.5791 14.6842 60.2641 14.4509 59.9007 14.2905C59.5373 14.1301 59.1358 14.0471 58.7288 14.0481C57.4213 14.0481 55.9525 14.8137 54.1275 16.4511L54.0612 16.2958C53.6738 15.3792 53.0262 13.8458 51.2887 13.8458C50.1012 13.8458 48.5288 14.4867 45.2238 18.702C44.2653 18.6403 43.3055 18.5955 42.345 18.5675L42.1675 18.0031C41.1363 14.6901 39.9663 10.9364 36.67 10.9353H36.6687C35.325 10.9353 33.9112 11.6276 32.345 13.0506C31.1787 14.1116 30.025 14.6267 28.8162 14.6267C27.3425 14.6267 25.8337 13.8873 24.3738 13.1731C22.8975 12.4512 21.3725 11.7042 19.795 11.7042C17.925 11.7042 16.405 12.7072 15.1475 14.7711C13.7113 17.1292 14.51 18.6867 15.2825 20.1939C15.62 20.8512 15.9737 21.548 16.225 22.4033C7.85375 25.5489 2.5 30.3122 2.5 35.653C2.5 50.4547 19.29 67.8125 40 67.8125C60.7113 67.8125 77.5 50.4547 77.5 35.653C77.5 32.4964 75.6025 29.5476 72.3463 27.008ZM40 65.5823C24.2362 65.5823 10.9812 54.7586 6.5725 43.4241C12.7712 48.9902 25.4075 52.8041 40 52.8041C54.5925 52.8041 67.2262 48.9901 73.425 43.4251C69.0163 54.7575 55.7625 65.5823 40 65.5823ZM53.9187 46.457C53.6175 47.2861 52.6812 48.5461 51.52 49.4331C49.7275 50.8014 47.5425 51.0956 46.5013 50.1397C45.6263 49.3325 45.77 47.833 46.775 46.4297C48.8325 43.5553 51.7825 42.9253 53.0625 43.4941C53.0375 43.5728 53.0025 43.6483 52.985 43.7325C52.8075 44.6064 53.1287 45.523 53.9187 46.457ZM73.1287 32.4045C71.905 32.4045 71.3163 35.3708 71.2288 37.2356C71.1513 38.8795 70.6087 39.4275 69.8325 39.4275C68.715 39.4275 67.1125 38.2944 65.7137 37.6534C65.2663 37.4478 64.9225 37.357 64.6525 37.357C63.8512 37.357 63.705 38.1762 63.43 39.3356C62.9662 41.2923 62.4137 43.3223 61.2012 45.01C60.3112 46.2492 58.935 47.1111 57.5562 47.1111C56.65 47.1111 55.7425 46.7392 54.97 45.8587C51.9325 42.4047 58.605 41.6981 59.935 39.3301C60.705 37.9608 60.4588 37.4839 59.7538 37.4839C58.3663 37.4839 55.2025 39.3367 54.55 39.8606C53.3975 40.7826 52.0737 42.1411 50.4538 42.1411C50.18 42.1411 49.8962 42.1017 49.6037 42.0153C47.885 41.5078 47.6437 39.6156 48.0075 38.2101C48.31 37.0355 49.0063 35.98 47.2113 35.9198C47.1479 35.9177 47.0846 35.9166 47.0213 35.9166C45.865 35.9166 44.6838 36.2491 43.635 36.6647C42.3625 37.17 40.6025 38.0734 40.1413 39.4001C39.9975 39.8081 43.0838 40.2336 43.5638 40.3955C45.9688 41.218 47.145 45.1784 44.6287 45.1784C44.3037 45.1784 43.9175 45.1117 43.4637 44.9673C41.8862 44.4522 40.3 43.7237 38.6488 43.7237C38.1063 43.7237 37.5575 43.8025 37.0013 43.9939C35.8488 44.3898 35.2188 45.5197 34.3112 46.2273C32.9688 47.2817 31.7813 47.8483 30.8488 47.8483C29.5638 47.8483 28.7638 46.772 28.7125 44.4084C28.6675 42.4878 28.2463 41.8655 27.565 41.8655C26.35 41.8655 24.31 43.8506 22.1187 43.9972C22.055 44.0005 21.9937 44.0026 21.935 44.0026C19.0112 44.0026 20.1488 39.1387 20.3763 37.6392C20.625 36.0041 19.4975 35.4233 17.7612 35.4233C15.81 35.4233 13.0962 36.1561 10.7062 36.9512C10.8212 37.0409 10.9412 37.1197 11.0512 37.2181C13.2387 39.1278 13.9575 41.6467 12.6612 42.84C11.3625 44.0311 8.53875 43.4481 6.35375 41.5362C4.16875 39.6244 3.4475 37.1055 4.74625 35.9133C5.855 34.8884 7.57875 35.233 9.045 35.9166C10.9613 35.3533 12.905 34.8622 12.86 34.0703C12.5188 28.0809 14.46 26.9631 15.9587 26.9642C16.53 26.9767 17.0889 27.1131 17.585 27.3612C18.9375 19.7389 13.8638 19.2216 16.2475 15.307C17.3763 13.4553 18.555 12.8231 19.7975 12.8231C22.4688 12.8231 25.4325 15.7445 28.8188 15.7445C30.2175 15.7445 31.6887 15.2447 33.24 13.8348C34.6312 12.5705 35.7512 12.0531 36.6725 12.0531C40.7938 12.0542 40.9038 22.4109 43.26 22.4109C43.7125 22.4109 44.2488 22.0292 44.91 21.1192C48.3663 16.3701 50.205 14.9625 51.29 14.9625C52.8725 14.9625 52.8512 17.9572 53.8975 17.9572C54.1125 17.9572 54.375 17.8292 54.705 17.5219C56.4412 15.9042 57.7775 15.1637 58.73 15.1637C60.9762 15.1637 61.0875 19.2773 59.2575 25.6856C59.2575 25.6856 59.6663 25.7764 60.265 25.7764C61.5413 25.7764 63.675 25.3662 64.51 22.8025C65.0363 21.1881 66.06 20.5253 67.1525 20.5253C68.8775 20.5253 70.7712 22.1769 71.14 24.337C71.8112 28.2822 68.8375 31.0767 69.07 32.2667C69.11 32.4778 69.2288 32.5609 69.4062 32.5609C70.0725 32.5609 71.5687 31.3742 72.875 31.3742C73.8487 31.3742 74.7188 32.0359 75.0537 34.3481C74.2887 32.947 73.6512 32.4045 73.1287 32.4045Z" fill="#FBFF15"/>
</svg>
