<svg width="70" height="70" viewBox="0 0 70 70" fill="none" xmlns="http://www.w3.org/2000/svg">
<path d="M55.4166 34.9998C55.4166 30.9457 52.6458 27.6207 48.9416 26.5998C49.4788 25.2727 49.6816 23.8339 49.5322 22.41C49.3829 20.9861 48.886 19.6207 48.0852 18.4338C47.2843 17.247 46.2042 16.2752 44.9397 15.6037C43.6752 14.9323 42.265 14.5818 40.8333 14.5832C39.5791 14.5832 38.4125 14.8748 37.3625 15.3415C37.9166 12.2207 39.0541 7.554 42 6.4165L39.6666 2.9165C34.7083 5.16234 33.25 11.929 32.8416 15.429C31.7041 14.904 30.4791 14.5832 29.1666 14.5832C27.7349 14.5818 26.3248 14.9323 25.0603 15.6037C23.7958 16.2752 22.7156 17.247 21.9148 18.4338C21.114 19.6207 20.6171 20.9861 20.4677 22.41C20.3184 23.8339 20.5212 25.2727 21.0583 26.5998C17.325 27.5915 14.5833 30.9748 14.5833 34.9998C14.5833 39.054 17.3541 42.4082 21.0875 43.3998C20.6791 44.3915 20.4166 45.4998 20.4166 46.6665C20.4166 50.7207 23.1583 54.0748 26.8916 55.0665C26.3545 56.3936 26.1517 57.8325 26.301 59.2564C26.4504 60.6803 26.9473 62.0457 27.7481 63.2325C28.5489 64.4193 29.6291 65.3912 30.8936 66.0626C32.1581 66.7341 33.5683 67.0845 35 67.0832C36.4317 67.0845 37.8418 66.7341 39.1063 66.0626C40.3709 65.3912 41.451 64.4193 42.2518 63.2325C43.0526 62.0457 43.5496 60.6803 43.6989 59.2564C43.8483 57.8325 43.6454 56.3936 43.1083 55.0665C44.9648 54.5799 46.6075 53.4914 47.7792 51.9714C48.9509 50.4514 49.5854 48.5857 49.5833 46.6665C49.5833 45.4998 49.35 44.4207 48.9125 43.3998C50.7724 42.9151 52.4194 41.828 53.5961 40.3083C54.7728 38.7886 55.413 36.9219 55.4166 34.9998V34.9998ZM47.5708 28.8165V28.8748H47.5416L47.5708 28.8165ZM40.8333 18.9582C43.2541 18.9582 45.2083 20.9123 45.2083 23.3332C45.2083 25.754 43.2541 27.7082 40.8333 27.7082C38.4125 27.7082 36.4583 25.754 36.4583 23.3332C36.4583 20.9123 38.4125 18.9582 40.8333 18.9582ZM39.375 34.9998C39.375 37.4207 37.4208 39.3748 35 39.3748C32.5791 39.3748 30.625 37.4207 30.625 34.9998C30.625 32.579 32.5791 30.6248 35 30.6248C37.4208 30.6248 39.375 32.579 39.375 34.9998ZM29.1666 18.9582C31.5875 18.9582 33.5416 20.9123 33.5416 23.3332C33.5416 25.754 31.5875 27.7082 29.1666 27.7082C26.7458 27.7082 24.7916 25.754 24.7916 23.3332C24.7916 20.9123 26.7458 18.9582 29.1666 18.9582ZM18.9583 34.9998C18.9583 32.579 20.9125 30.6248 23.3333 30.6248C25.7541 30.6248 27.7083 32.579 27.7083 34.9998C27.7083 37.4207 25.7541 39.3748 23.3333 39.3748C20.9125 39.3748 18.9583 37.4207 18.9583 34.9998ZM24.7916 46.6665C24.7916 44.2457 26.7458 42.2915 29.1666 42.2915C31.5875 42.2915 33.5416 44.2457 33.5416 46.6665C33.5416 49.0873 31.5875 51.0415 29.1666 51.0415C26.7458 51.0415 24.7916 49.0873 24.7916 46.6665ZM35 62.7082C32.5791 62.7082 30.625 60.754 30.625 58.3332C30.625 55.9123 32.5791 53.9582 35 53.9582C37.4208 53.9582 39.375 55.9123 39.375 58.3332C39.375 60.754 37.4208 62.7082 35 62.7082ZM40.8333 51.0415C38.4125 51.0415 36.4583 49.0873 36.4583 46.6665C36.4583 44.2457 38.4125 42.2915 40.8333 42.2915C43.2541 42.2915 45.2083 44.2457 45.2083 46.6665C45.2083 49.0873 43.2541 51.0415 40.8333 51.0415ZM46.6666 39.3748C44.2458 39.3748 42.2916 37.4207 42.2916 34.9998C42.2916 32.579 44.2458 30.6248 46.6666 30.6248C49.0875 30.6248 51.0416 32.579 51.0416 34.9998C51.0416 37.4207 49.0875 39.3748 46.6666 39.3748Z" fill="#FBFF15" stroke="#3A8438"/>
<rect x="46" y="28" width="3" height="2" fill="#FBFF15"/>
</svg>
