<svg width="63" height="63" viewBox="0 0 63 63" fill="none" xmlns="http://www.w3.org/2000/svg">
<path d="M44.6704 45.3995C50.8581 39.2133 46.734 18.5895 37.4517 9.30867C33.3275 5.18304 21.4684 -3.583 8.5796 9.30867C-4.31206 22.1974 4.45398 34.0566 8.5796 38.1808C17.8604 47.4631 38.4842 51.5872 44.6704 45.3995V45.3995Z" stroke="#FBFF15" stroke-width="3.5" stroke-linecap="round" stroke-linejoin="round"/>
<path d="M55.7917 55.7916L45.5834 45.5833" stroke="#FBFF15" stroke-width="7"/>
<path d="M54.9535 51.8588C53.5297 53.2826 53.5297 55.591 54.9535 57.0148C56.3773 58.4385 58.6857 58.4385 60.1095 57.0148C61.5333 55.591 61.5333 53.2826 60.1095 51.8588C58.6857 50.435 56.3773 50.435 54.9535 51.8588Z" fill="#FBFF15"/>
<path d="M51.8589 54.9535C50.4351 56.3773 50.4351 58.6857 51.8589 60.1095C53.2827 61.5333 55.5911 61.5333 57.0149 60.1095C58.4387 58.6857 58.4387 56.3773 57.0149 54.9535C55.5911 53.5297 53.2827 53.5297 51.8589 54.9535Z" fill="#FBFF15"/>
<path d="M20.7917 25.1666C22.4025 25.1666 23.7083 23.8607 23.7083 22.2499C23.7083 20.6391 22.4025 19.3333 20.7917 19.3333C19.1808 19.3333 17.875 20.6391 17.875 22.2499C17.875 23.8607 19.1808 25.1666 20.7917 25.1666Z" fill="#FBFF15"/>
<path d="M13.5 29.5416C15.1108 29.5416 16.4167 28.2357 16.4167 26.6249C16.4167 25.0141 15.1108 23.7083 13.5 23.7083C11.8892 23.7083 10.5833 25.0141 10.5833 26.6249C10.5833 28.2357 11.8892 29.5416 13.5 29.5416Z" fill="#FBFF15"/>
<path d="M20.7917 33.9166C22.4025 33.9166 23.7083 32.6108 23.7083 30.9999C23.7083 29.3891 22.4025 28.0833 20.7917 28.0833C19.1808 28.0833 17.875 29.3891 17.875 30.9999C17.875 32.6108 19.1808 33.9166 20.7917 33.9166Z" fill="#FBFF15"/>
</svg>
