<svg width="70" height="70" viewBox="0 0 70 70" fill="none" xmlns="http://www.w3.org/2000/svg">
<path fill-rule="evenodd" clip-rule="evenodd" d="M45.5394 5.83334L43.7748 12.6L43.8754 11.1271L35 15.3723V9.695L24.7917 12.8188V18.0979L22.2104 8.46854L14.0408 16.1058L17.5992 29.381C17.7669 29.4685 17.9229 29.5808 18.0615 29.7135C19.2719 30.8846 20.4371 31.9477 21.5615 32.9058L17.3119 17.0406L20.6515 13.9198L24.7917 29.3577V35.4258C25.7877 36.1287 26.7575 36.7383 27.7083 37.2488V14.9771L32.0833 13.6398V38.9667C33.1917 39.2262 34.2854 39.3444 35.3821 39.3181L36.8492 17.7202L40.6262 15.9119L39.079 38.6969C40.2558 38.3323 41.4502 37.8044 42.6752 37.119L46.0702 24.4504L50.2119 23.2079L47.3535 33.8713C48.7264 32.7438 50.0513 31.559 51.3246 30.3202L54.4571 18.6331L51.8802 19.2923L55.9183 5.83334H45.5394ZM51.9983 8.75L48.5815 20.1367L44.5535 21.1663L47.794 8.75H51.9983Z" fill="#982A3A"/>
<path fill-rule="evenodd" clip-rule="evenodd" d="M51.8992 33.7881C46.1373 39.0819 40.8158 42.2494 35.0671 42.2406C29.3154 42.2319 23.9458 39.041 18.095 33.7415L21.5323 61.25H48.4677L51.8992 33.7881ZM16.7271 29.1667C15.5896 29.1667 14.7088 30.1642 14.8502 31.2929L18.6404 61.6117C18.7285 62.3167 19.071 62.9653 19.6034 63.4358C20.1359 63.9062 20.8218 64.1661 21.5323 64.1667H48.4677C49.1785 64.1665 49.8647 63.9067 50.3975 63.4363C50.9303 62.9658 51.2729 62.317 51.361 61.6117L55.1527 31.2856C55.2027 30.8942 55.1287 30.4969 54.941 30.1497C54.7533 29.8026 54.4614 29.5231 54.1064 29.3506C53.7515 29.1781 53.3514 29.1214 52.9624 29.1883C52.5735 29.2552 52.2154 29.4425 51.9385 29.7238C38.901 42.5513 31.2885 42.4988 18.0615 29.7135C17.7037 29.3661 17.2257 29.1702 16.7271 29.1667Z" fill="#982A3A"/>
</svg>
