<svg width="44" height="44" viewBox="0 0 44 44" fill="none" xmlns="http://www.w3.org/2000/svg">
<path d="M39.4802 32.1214C39.3967 31.6053 39.0732 31.1642 38.5887 30.9021L31.4212 26.6779L31.3622 26.6449C31.0616 26.4944 30.7297 26.4173 30.3937 26.4198C29.7932 26.4198 29.2197 26.6474 28.8217 27.0465L26.7061 29.1636C26.6156 29.2496 26.3206 29.3741 26.2311 29.3786C26.2066 29.3766 23.7696 29.2011 19.2831 24.7128C14.8046 20.234 14.6146 17.7888 14.6131 17.7888C14.6156 17.6638 14.7386 17.3697 14.8261 17.2787L16.6301 15.4747C17.2656 14.8375 17.4561 13.7812 17.0791 12.9629L13.0951 5.46428C12.8056 4.86811 12.2431 4.5 11.6191 4.5C11.1776 4.5 10.7516 4.68305 10.4186 5.01565L5.50109 9.92356C5.02959 10.3927 4.62358 11.2129 4.53508 11.8731C4.49208 12.1887 3.61958 19.7219 13.9446 30.0513C22.7101 38.8184 29.5452 39.4996 31.4327 39.4996C31.6625 39.5025 31.8923 39.4907 32.1207 39.464C32.7787 39.376 33.5977 38.9709 34.0662 38.5013L38.9797 33.5869C39.3807 33.1837 39.5637 32.6511 39.4802 32.1214V32.1214Z" fill="white"/>
</svg>
