<svg width="32" height="32" viewBox="0 0 32 32" fill="none" xmlns="http://www.w3.org/2000/svg">
<path d="M31.1175 24.5713C31.0432 24.1122 30.7555 23.7198 30.3245 23.4866L23.9484 19.7289L23.8959 19.6995C23.6286 19.5657 23.3333 19.4971 23.0344 19.4993C22.5002 19.4993 21.99 19.7017 21.6359 20.0568L19.754 21.9401C19.6735 22.0166 19.4111 22.1274 19.3315 22.1314C19.3097 22.1296 17.1418 21.9735 13.1507 17.9808C9.16673 13.9966 8.99771 11.8214 8.99638 11.8214C8.9986 11.7102 9.10802 11.4486 9.18586 11.3676L10.7907 9.76278C11.356 9.19596 11.5254 8.2563 11.1901 7.52841L7.646 0.857797C7.38846 0.327458 6.88808 0 6.33298 0C5.94023 0 5.56127 0.162839 5.26504 0.458708L0.890542 4.82466C0.471106 5.24199 0.109937 5.97166 0.0312092 6.55894C-0.00704262 6.83969 -0.783199 13.541 8.40169 22.7298C16.1993 30.5288 22.2796 31.1347 23.9586 31.1347C24.1631 31.1374 24.3675 31.1268 24.5707 31.1031C25.156 31.0248 25.8846 30.6645 26.3013 30.2467L30.6723 25.8749C31.029 25.5163 31.1918 25.0425 31.1175 24.5713Z" fill="white"/>
</svg>
